<svg xmlns="http://www.w3.org/2000/svg" viewBox="0 0 457.76 457.76"><defs><style>.cls-1{fill:#fffefd;}.cls-2{fill:#171516;}</style></defs><title>logoAsset 3white</title><g id="Layer_2" data-name="Layer 2"><g id="Layer_2-2" data-name="Layer 2"><circle class="cls-1" cx="228.88" cy="228.88" r="228.88"/><path class="cls-2" d="M312,281.56c2.71,3.81,11.74,8.24,17.56,6,2.7-1,5.31-4.93,5.85-8.49.27-1.71.28-12.35.15-12.78,0-6,.1-9.75,0-38.73.17-5.53.33-9.63-2.19-13.9-.78-1.32-3.18-5-10.69-8.49-17.25-8.09-34.35-2.78-36.58-2-5,1.65-14.82,4.85-17.12,12.44a14.91,14.91,0,0,0-.66,5.86c0,12.8-.95,22-1.69,31.61-1.37,8.92-2.06,13.52-5.41,17.7-1.21,1.51-6.06,7.58-14,8.64-7.31,1-13.05-2.82-17.41-5.71-6.94-4.58-15.78-13.43-20.49-20.05a12,12,0,0,0-5.71-4.83c-3.53-1.23-6,.36-6.58-.58-1-1.72,5.63-9.68,11.41-8.64,1.66.3,3.11,1.57,6,4.1,4.12,3.6,3.95,4.73,6.29,6,3,1.64,7.81,2.19,10.69-.15.76-.62,2.29-2.17,2.78-8.78s-.54-11.53-1.61-17c-2-9.87-2.94-14.8-2.93-15.22.19-10.91,7.17-19.95,10.54-24.29,5.81-7.51,10-8,9.85-12.39.05-4.05-3.8-9.91-3.51-18,.39-3.83,8.51-6.75,10.44-19.8,2.69-8.81-.1-22.24-3.91-31.07-6.31-16.76-15.23-28.43-13.9-29.42s9.08,8.86,14.78,9.22c2.93-.44-.8-13.76,4.91-15.36,3.43-.08,6.64,8.08,7.24,17.19.22,3.39.35,6,.29,6.51-1.37,11.63,1.07,27.23,2.78,38.2,3,19.29,9.8,46.11,13.17,45.66,2.81-.38,2.53-19.52,2.49-21.59-.27-15.29-3.29-21.93-1.39-36.44.85-6.46,2.26-11.36,6.29-14.12,3.65-2.5,7.88-2.17,9.52-2,2.75.21,7.38,1.19,17.48,10.32,7.45,6.72,13.46,13.88,12.81,14.56s-5.57-4.86-15.22-8c-5.65-1.87-8.51-1.5-10-1.17a14.37,14.37,0,0,0-8.78,5.71c-1.25,1.91-1.21,3.82-1.95,10.9a53.47,53.47,0,0,0,.64,14.05c.87,6,12.73,31.53,31.46,52.9,8.19-10.83,5-35.27,10-35.71,2.86-.25,4.11,8.46,13.76,33.08,6.12,15.6,8.87,20.47,11.7,24.58,6.11,8.84,12.39,16.88,17.27,17.47s6.73-2.54,6.73-2.54c1.62-2.52.16-5.52-1.75-12-2.41-8.14-3.61-12.21-2.93-15.51,1.09-5.26,5.42-6.54,11.12-11.71,9.23-8.36,17.51-22.75,14.93-34.24-.39-1.74-1.3-4.63-9.66-13.76-11.44-12.49-18.51-16.65-26.93-24.29-11.55-10.5-7.45-11-25.46-31.32-10.83-14.63-17.12-21-29.85-24.59-8.16-1.69-11.16,1.17-23.12-.87-10.23-1.76-16-5.21-21.66-7.61-14.05-2.47-23.27-1.47-34.73-1-15.24.66-29.35,0-41.37,3-12.47,3.12-15.39,5.49-25.17,5.86-6.29.24-13-.44-20.2,3.51a28.12,28.12,0,0,0-7.31,5.85c-7.22,7.81-34,32.72-75.52,70.54a25.84,25.84,0,0,0-6.43,12c-1.66,7.64,1,13.88,4.09,21.07a68.76,68.76,0,0,0,11.71,18.15c4.3,5,4.38,3.91,7.61,7.9,6,7.43,5.61,11.15,12.59,22.83,5.55,9.31,7.87,10.4,9.07,10.83,6.66,2.4,14-2.82,16.68-4.68,7.07-5,10.68-11.53,14.93-21.07,9-20.19,11.67-33.26,12.58-33.08,2,.4-11.24,61.81-11.7,85.47a37.12,37.12,0,0,1-1.47,9.95c-2.38,8.16-7.13,13.54-12.58,19.31-6.54,6.93-10.5,10.59-20.78,20.49C91,328.31,86.15,333.1,82.37,341.42c-2,4.46-3.08,6.76-3.22,9.36-.54,9.83,11.9,21.16,124.68,59.71A58,58,0,0,0,227,414c14.11-.89,24.45-7.23,33.65-12.88,8.73-5.35,15.28-9.48,19.91-17.85,1.53-2.78,5.85-10.6,3.51-18.73a20.48,20.48,0,0,0-5.27-8.49c-7.51-16-2.83-41.17,2.34-58.24C288,294.88,299.18,291.88,312,281.56Z"/><path class="cls-1" d="M254.67,300.83C250.36,299.09,236,315.89,234,336c-1.22,12.46,2.63,28.15,6.25,28.49C243.2,365.22,258.42,302.49,254.67,300.83Z"/><path class="cls-1" d="M156.53,83.78a1.07,1.07,0,0,0-1.46-1.42c-12.3,6.16-18.18,19.59-22.75,39.93C127,146.21,135,174.74,140.91,175,137.71,133.82,144.84,107.14,156.53,83.78Z"/><path class="cls-1" d="M244.52,133.61c1.4-4.55.87-11.86-.59-17.56-1.21-4.74-2.72-10.66-7.8-14.83-5.72-4.68-12.75-4.54-15.61-4.49-22.75.46-38.83,35.32-44.69,50.74C205.69,127.56,226.76,99.47,244.52,133.61Z"/><path class="cls-1" d="M224.15,144.46c-5.29-2.51-26.26.15-26.27,2s14.79,6.33,26.66,5.08Z"/><path class="cls-1" d="M305.54,144.15c.73-.93,19.9-1.43,20.64-.71s0,5.06-18.69,8.81a1.48,1.48,0,0,1-1.73-1.1C305.21,148.9,305,144.88,305.54,144.15Z"/><path class="cls-1" d="M323.15,83.86c1.43-1.18,14.9,8.4,23.42,23.8,16.29,29.48,4.79,66.21,3.12,66.15-2.15-.39-.27-41-6.71-54.49C334.55,93.38,321.5,85.22,323.15,83.86Z"/><path class="cls-1" d="M204.13,212.49a104.07,104.07,0,0,0,18.58-20.05,20.63,20.63,0,0,0,4.1-9.51c.08-.6,1-8.79-4.1-13.76-3.31-3.23-7.6-3.57-10.39-3.95-17.73-2.39-30.07-13.43-30.73-12.29-.86,1.46,3.22,8.49,29.27,40.54C205,202.1,201.35,214.39,204.13,212.49Z"/><path class="cls-1" d="M191.64,255.17c.88-.88-1.74-3.59-3.51-11-1.59-6.62,0-7.84-1.37-14.25-.74-3.51-3-11.41-9.37-15.12-1.22-.71-4.72-2.76-8.29-1.36a7.41,7.41,0,0,0-4.58,5.36c-.5,2.88,2.46,8.09,3.39,9.33C177.6,241.13,188.66,256.44,191.64,255.17Z"/><path class="cls-1" d="M286.44,227.68a2.07,2.07,0,0,1-3,.47,11.83,11.83,0,0,1-3.41-4.59,9.86,9.86,0,0,1-.1-5.95c1.44-4.46,6.74-6.22,10.93-7.51,5.79-1.78,18.47-2,23.32-.46s9.47,5.41,9.92,7.86a2.06,2.06,0,0,1-2.38,2.42C299.65,215.91,291.32,220.54,286.44,227.68Z"/><path class="cls-1" d="M294.29,236.16l10.94,8a.89.89,0,0,0,1.42-.77c0-1.18-.11-2.69-.16-3.79a2,2,0,0,0-1.48-1.85l-10.15-2.77A.68.68,0,0,0,294.29,236.16Z"/><path class="cls-1" d="M324,235.71a1.87,1.87,0,0,1,1.82.42l.19.17a1.61,1.61,0,0,1-.19,2.5c-1.34.92-3.26,2.23-4.81,3.25a1.93,1.93,0,0,1-3-1.3l-.2-1.19a2.14,2.14,0,0,1,1.47-2.38Z"/></g></g></svg>